<?xml version="1.0" standalone="no"?>
<!DOCTYPE svg PUBLIC "-//W3C//DTD SVG 20010904//EN"
 "http://www.w3.org/TR/2001/REC-SVG-20010904/DTD/svg10.dtd">
<svg version="1.0" xmlns="http://www.w3.org/2000/svg"
 width="512.000000pt" height="512.000000pt" viewBox="0 0 512.000000 512.000000"
 preserveAspectRatio="xMidYMid meet">

<g transform="translate(0.000000,512.000000) scale(0.100000,-0.100000)"
fill="#000000" stroke="none">
<path d="M366 3618 c-4 -35 -15 -202 -27 -373 -24 -366 -111 -1371 -139 -1602
-11 -89 -20 -164 -20 -167 0 -3 128 -6 285 -6 l285 0 0 66 c0 208 88 1485 103
1500 3 3 10 -28 17 -68 7 -40 41 -190 77 -332 55 -225 263 -1140 263 -1159 0
-4 135 -7 299 -7 l299 0 151 453 c83 248 200 605 260 792 105 328 109 338 116
293 8 -51 -8 -634 -30 -1158 -8 -184 -15 -345 -15 -357 l0 -23 298 0 297 0 2
343 c3 440 20 1081 38 1457 8 162 15 321 15 353 l0 57 -455 0 -454 0 -21 -72
c-36 -124 -50 -167 -127 -378 -132 -361 -184 -520 -283 -858 -12 -41 -23 -72
-25 -70 -2 2 -27 118 -55 258 -46 231 -78 367 -185 780 -19 74 -42 181 -52
238 l-16 102 -448 0 -447 0 -6 -62z"/>
<path d="M3396 3658 c-3 -13 -6 -106 -6 -208 -1 -436 -46 -1231 -100 -1770
-11 -107 -20 -198 -20 -202 0 -4 388 -8 863 -8 l863 0 13 188 c6 103 14 210
18 238 l5 50 -503 0 -504 -1 -3 73 c-3 75 47 1048 73 1412 8 113 15 215 15
228 l0 22 -354 0 -354 0 -6 -22z"/>
</g>
</svg>
